<?xml version="1.0" encoding="UTF-8" standalone="no"?>
<svg
   xmlns:dc="http://purl.org/dc/elements/1.1/"
   xmlns:cc="http://creativecommons.org/ns#"
   xmlns:rdf="http://www.w3.org/1999/02/22-rdf-syntax-ns#"
   xmlns:svg="http://www.w3.org/2000/svg"
   xmlns="http://www.w3.org/2000/svg"
   xmlns:sodipodi="http://sodipodi.sourceforge.net/DTD/sodipodi-0.dtd"
   xmlns:inkscape="http://www.inkscape.org/namespaces/inkscape"
   sodipodi:docname="rysolv_final.svg"
   inkscape:version="1.0 (4035a4fb49, 2020-05-01)"
   id="svg930"
   version="1.1"
   viewBox="0 0 194.99837 248.17917"
   height="248.17917mm"
   width="194.99837mm">
  <defs
     id="defs924" />
  <sodipodi:namedview
     fit-margin-bottom="0"
     fit-margin-right="0"
     fit-margin-left="0"
     fit-margin-top="0"
     inkscape:window-maximized="1"
     inkscape:window-y="-9"
     inkscape:window-x="-9"
     inkscape:window-height="1425"
     inkscape:window-width="2256"
     inkscape:snap-nodes="true"
     showborder="true"
     showgrid="false"
     inkscape:document-rotation="0"
     inkscape:current-layer="layer1"
     inkscape:document-units="px"
     inkscape:cy="485.48204"
     inkscape:cx="321.79584"
     inkscape:zoom="1"
     inkscape:pageshadow="2"
     inkscape:pageopacity="0.0"
     borderopacity="1.0"
     bordercolor="#666666"
     pagecolor="#ffffff"
     id="base" />
  <metadata
     id="metadata927">
    <rdf:RDF>
      <cc:Work
         rdf:about="">
        <dc:format>image/svg+xml</dc:format>
        <dc:type
           rdf:resource="http://purl.org/dc/dcmitype/StillImage" />
        <dc:title></dc:title>
      </cc:Work>
    </rdf:RDF>
  </metadata>
  <g
     transform="translate(32.014583,-11.906243)"
     id="layer1"
     inkscape:groupmode="layer"
     inkscape:label="Layer 1">
    <path
       transform="scale(0.26458333)"
       d="M 1.8398438,45 A 123,123 0 0 0 -121,168 123,123 0 0 0 -51.160156,278.91797 V 749.08008 A 123,123 0 0 0 -121,860 123,123 0 0 0 2,983 123,123 0 0 0 125,860 123,123 0 0 0 55.160156,749.08203 V 509.35352 A 289,289 0 0 1 303,369 289,289 0 0 1 349.60352,372.7832 123,123 0 0 0 471,476 123,123 0 0 0 594,353 123,123 0 0 0 471,230 a 123,123 0 0 0 -0.16016,0 123,123 0 0 0 -93.1582,42.87305 A 289,289 0 0 0 265,250 289,289 0 0 0 55.160156,340.28516 V 278.91797 A 123,123 0 0 0 125,168 123,123 0 0 0 2,45 123,123 0 0 0 1.8398438,45 Z m 0.070312,29 A 94.000002,94.000002 0 0 1 2,74 94.000002,94.000002 0 0 1 96,168 94.000002,94.000002 0 0 1 2,262 94.000002,94.000002 0 0 1 -92,168 94.000002,94.000002 0 0 1 1.9101558,74 Z M 470.91016,259 a 94.000002,94.000002 0 0 1 0.0898,0 94.000002,94.000002 0 0 1 94,94 94.000002,94.000002 0 0 1 -94,94 94.000002,94.000002 0 0 1 -94,-94 94.000002,94.000002 0 0 1 93.91016,-94 z M 1.9101562,766 A 94.000002,94.000002 0 0 1 2,766 94.000002,94.000002 0 0 1 96,860 94.000002,94.000002 0 0 1 2,954 94.000002,94.000002 0 0 1 -92,860 94.000002,94.000002 0 0 1 1.9101562,766 Z"
       style="opacity:0.4;fill:#333333;stroke-width:0.999999"
       id="path1493" />
    <path
       id="path1556"
       style="opacity:1;fill:#607d8b;fill-opacity:1;stroke-width:0.264583"
       d="M 6.3080749,11.90625 A 32.54375,32.54375 0 0 0 -26.1933,44.449999 32.54375,32.54375 0 0 0 -7.7148416,73.797045 V 198.1941 A 32.54375,32.54375 0 0 0 -26.1933,227.54166 32.54375,32.54375 0 0 0 6.3504495,260.08541 32.54375,32.54375 0 0 0 38.894199,227.54166 32.54375,32.54375 0 0 0 20.415741,198.19462 v -63.42817 a 76.464582,76.464582 0 0 1 65.574291,-37.135201 76.464582,76.464582 0 0 1 12.330514,1.000971 32.54375,32.54375 0 0 0 32.119484,27.30945 32.54375,32.54375 0 0 0 32.54375,-32.543755 32.54375,32.54375 0 0 0 -32.54375,-32.543749 32.54375,32.54375 0 0 0 -0.0424,0 A 32.54375,32.54375 0 0 0 105.74955,72.19766 76.464582,76.464582 0 0 0 75.935865,66.145832 76.464582,76.464582 0 0 0 20.415741,90.033781 V 73.797045 A 32.54375,32.54375 0 0 0 38.894199,44.449999 32.54375,32.54375 0 0 0 6.3504495,11.90625 a 32.54375,32.54375 0 0 0 -0.042375,0 z m 0.018603,7.672916 a 24.870834,24.870834 0 0 1 0.023771,0 A 24.870834,24.870834 0 0 1 31.221283,44.449999 24.870834,24.870834 0 0 1 6.3504495,69.320832 24.870834,24.870834 0 0 1 -18.520383,44.449999 24.870834,24.870834 0 0 1 6.3266779,19.579166 Z M 130.41626,68.527082 a 24.870834,24.870834 0 0 1 0.0238,0 24.870834,24.870834 0 0 1 24.87083,24.870833 A 24.870834,24.870834 0 0 1 130.44003,118.26875 24.870834,24.870834 0 0 1 105.5692,93.397915 24.870834,24.870834 0 0 1 130.41626,68.527082 Z M 6.3266783,202.67083 a 24.870834,24.870834 0 0 1 0.023771,0 A 24.870834,24.870834 0 0 1 31.221283,227.54166 24.870834,24.870834 0 0 1 6.3504495,252.4125 24.870834,24.870834 0 0 1 -18.520383,227.54166 24.870834,24.870834 0 0 1 6.3266783,202.67083 Z" />
  </g>
</svg>
